<?xml version="1.0" ?><svg viewBox="0 0 40 40" xmlns="http://www.w3.org/2000/svg"><title/><g id="Reddit"><path d="M17.28,22.51a1.25,1.25,0,1,1,1.24-1.25A1.24,1.24,0,0,1,17.28,22.51Zm5.26,1.6a3.9,3.9,0,0,1-2.5.73,3.94,3.94,0,0,1-2.51-.73.31.31,0,0,0-.45,0,.32.32,0,0,0,0,.46,4.61,4.61,0,0,0,3,.91A4.57,4.57,0,0,0,23,24.57a.34.34,0,0,0,0-.46A.31.31,0,0,0,22.54,24.11ZM32,20A12,12,0,1,1,20,8,12,12,0,0,1,32,20Zm-4,0a1.73,1.73,0,0,0-1.74-1.74,1.78,1.78,0,0,0-1.22.48,8.72,8.72,0,0,0-4.67-1.48l.8-3.75,2.6.56a1.26,1.26,0,1,0,.13-.6L21,12.87a.3.3,0,0,0-.23.05.26.26,0,0,0-.13.2l-.89,4.17A8.69,8.69,0,0,0,15,18.78a1.77,1.77,0,0,0-1.22-.49,1.74,1.74,0,0,0-.71,3.33,3.08,3.08,0,0,0,0,.53c0,2.69,3.13,4.88,7,4.88s7-2.18,7-4.88a3.17,3.17,0,0,0-.05-.53A1.75,1.75,0,0,0,28,20Zm-5.24,0A1.24,1.24,0,1,0,24,21.28,1.24,1.24,0,0,0,22.77,20Z"/></g></svg>