<?xml version="1.0" encoding="UTF-8"?>
<svg width="500px" height="96px" viewBox="0 0 4519 867" version="1.1" xmlns="http://www.w3.org/2000/svg" xmlns:xlink="http://www.w3.org/1999/xlink">
    <g stroke="none" stroke-width="1" fill="none" fill-rule="evenodd">
        <rect fill="#FFFFFF" x="0" y="0" width="4519" height="867"/>
        <g fill="#000000" fill-rule="nonzero">
            <g>
                <path d="M433.5,0 C672.915439,0 867,77.6338244 867,173.4 C867,203.662023 847.619606,232.113432 813.552624,256.876705 C811.914794,258.401821 810.778463,259.746837 810.142398,260.912288 C809.349123,262.365793 808.708774,264.685534 808.22135,267.871512 L808.10268,268.686053 C808.083432,268.824817 808.064451,268.965086 808.045734,269.106858 L808.044,837.522 C808.044,853.80225 794.84625,867 778.566,867 L682.49373,867 L682.116121,867 C670.239288,866.850828 659.622576,859.812061 655.381833,847.572851 L655.248661,847.180474 L564.705017,602.13906 L299.36184,602.13906 L218.417248,827.19077 L212.387292,843.886469 L212.171664,844.477811 C210.511698,849.018284 208.036838,853.208493 205.001332,856.712181 L204.490267,857.289715 C199.242547,863.09551 192.425686,866.876575 185.276592,867 L184.924735,867 L88.434,867 C72.1537501,867 58.956,853.80225 58.956,837.522 L58.9542658,269.106858 L58.8973202,268.686053 L58.7786502,267.871512 C58.2912263,264.685534 57.6508769,262.365793 56.8576021,260.912288 C56.221425,259.746631 55.0848044,258.401346 53.4477404,256.876434 C19.3801834,232.113123 0,203.661858 0,173.4 C0,77.6338244 194.084561,0 433.5,0 Z M433.5,58.956 C226.645061,58.956 58.956,110.194324 58.956,173.4 C58.956,192.126403 73.6757801,209.80231 99.7728024,225.406389 C100.349268,225.751073 100.982923,226.111416 101.673767,226.48742 L101.673765,226.487423 C111.681034,231.934042 117.909785,242.415966 117.909523,253.809433 C117.909523,253.809433 117.909523,253.809433 117.909523,253.809433 C117.909496,255.01467 117.909454,256.822526 117.909399,259.233 L117.912,778.566 C117.912,794.427087 130.438901,807.362359 146.138813,808.017926 C153.123709,807.824597 158.025886,806.593834 160.84677,804.325442 C162.541292,802.962805 164.287737,800.580051 166.086105,797.177181 L166.458922,796.458583 C166.521181,796.336391 166.583503,796.212986 166.645886,796.088368 L167.020925,795.326102 C167.208815,794.937692 167.397261,794.538365 167.586263,794.128121 L167.965007,793.293077 C168.028254,793.151477 168.091563,793.008664 168.154934,792.864638 L168.535901,791.985927 C168.599518,791.837049 168.663198,791.686958 168.726939,791.535655 L169.110128,790.613276 L169.494799,789.661786 C169.559034,789.500779 169.623331,789.338558 169.68769,789.175124 L236.903493,601.688616 L169.414944,601.688616 C153.066786,601.688616 139.652913,586.823971 140.49128,568.80622 C141.321263,551.414586 155.709026,538.879231 171.452566,538.630263 L171.930045,538.626487 L259.958587,538.626487 L283.432865,472.861696 L226.004721,472.861696 C209.656563,472.861696 196.24269,457.997051 197.081057,439.9793 C197.911041,422.587666 212.298803,410.052311 228.042343,409.803343 L228.519822,409.799567 L307.326327,409.799567 L403.73854,137.731526 C408.349559,126.019988 419.248331,117.912 430.98547,117.912 C443.015164,117.912 453.81337,125.851951 458.099228,137.366719 L558.836448,410.250011 L639.319687,410.250011 C655.667845,410.250011 669.081718,425.114655 668.243351,443.132406 C667.413367,460.524041 653.025605,473.059396 637.282065,473.308363 L636.804585,473.31214 L581.891542,473.31214 L606.204187,539.527375 L695.071097,539.527375 C711.419255,539.527375 725.671495,552.590244 726.509862,569.707108 C727.339845,587.544681 713.790366,601.850415 694.402826,602.571811 L693.813546,602.589503 L627.163364,602.589503 L697.01607,791.011802 L697.21262,791.482494 L697.604547,792.400869 L697.994914,793.288563 C698.319568,794.015525 698.642596,794.710527 698.963997,795.373571 L699.348897,796.153883 L699.732236,796.903514 C701.581267,800.452589 703.375577,802.926565 705.115167,804.325442 C708.019104,806.660621 713.128698,807.896171 720.443947,808.032092 C736.177132,807.595113 748.828244,794.830881 749.084051,779.053473 L749.088,778.566 L749.088,259.233 L749.088761,252.936887 C749.090085,241.98395 754.36788,231.702403 763.266859,225.316872 C793.118286,203.896752 808.044,186.591128 808.044,173.4 C808.044,110.194324 640.354939,58.956 433.5,58.956 Z M515.818405,471.648 L345.140885,471.648 L321.657,537.54 L540.141,537.54 L515.818405,471.648 Z M433.089775,236.691 L371.076,410.091 L496.791,410.091 L433.089775,236.691 Z"/>
            </g>
        </g>
        <path d="M1197.65234,683.619141 C1224.08464,683.619141 1247.21289,682.308919 1267.03711,679.688477 C1286.86133,677.068034 1304.4069,672.567708 1319.67383,666.1875 C1344.05534,655.477865 1363.42383,638.900716 1377.7793,616.456055 C1392.13477,594.011393 1399.3125,568.775391 1399.3125,540.748047 C1399.3125,480.136068 1366.38607,439.348307 1300.5332,418.384766 C1350.66341,395.142578 1375.72852,358.45638 1375.72852,308.326172 C1375.72852,293.742839 1373.33594,279.900065 1368.55078,266.797852 C1363.76562,253.695638 1356.81576,241.732747 1347.70117,230.90918 C1338.58659,220.085612 1328.10482,211.141927 1316.25586,204.078125 C1302.35612,195.647135 1286.63346,189.950521 1269.08789,186.988281 C1251.54232,184.026042 1230.80664,182.544922 1206.88086,182.544922 L1044.52734,182.544922 C1022.88021,182.544922 1007.21452,187.387044 997.530273,197.071289 C987.846029,206.755534 983.003906,222.649089 983.003906,244.751953 L983.003906,621.412109 C983.003906,643.059245 987.732096,658.838867 997.188477,668.750977 C1006.64486,678.663086 1022.42448,683.619141 1044.52734,683.619141 L1197.65234,683.619141 Z M983,388.306641 L983,258.765625 L1166.89063,258.765625 C1203.80469,258.765625 1231.26237,262.924154 1249.26367,271.241211 C1267.26497,279.558268 1276.26562,296.363281 1276.26562,321.65625 C1276.26562,333.505208 1273.41732,344.214844 1267.7207,353.785156 C1260.42904,367.229167 1249.8903,376.34375 1236.10449,381.128906 C1222.31868,385.914062 1202.7793,388.306641 1177.48633,388.306641 L983,388.306641 Z M1193.55078,607.398438 L1084.51758,607.398438 L1084.51758,461.109375 L1190.13281,461.109375 C1225.45182,461.109375 1251.99805,466.80599 1269.77148,478.199219 C1287.54492,489.592448 1296.43164,507.935547 1296.43164,533.228516 C1296.43164,582.67513 1262.13802,607.398438 1193.55078,607.398438 L1193.55078,607.398438 Z M1526.11914,692.164062 C1539.79102,692.164062 1551.07031,687.435872 1559.95703,677.979492 C1568.84375,668.523112 1573.28711,654.338542 1573.28711,635.425781 L1573.28711,635.425781 L1573.28795,556.024915 C1573.31937,528.63656 1574.23055,505.37207 1576.02148,486.231445 C1577.8444,466.749023 1581.14844,449.94401 1585.93359,435.816406 C1590.71875,421.688802 1597.44076,411.036133 1606.09961,403.858398 C1614.75846,396.680664 1625.92383,393.091797 1639.5957,393.091797 C1649.62174,393.091797 1661.18587,395.199544 1674.28809,399.415039 C1687.3903,403.630534 1695.65039,405.738281 1699.06836,405.738281 C1708.18294,405.738281 1716.6709,402.035482 1724.53223,394.629883 C1732.39355,387.224284 1736.32422,377.82487 1736.32422,366.431641 C1736.32422,350.253255 1727.0957,337.264974 1708.63867,327.466797 C1690.18164,317.66862 1671.15495,312.769531 1651.55859,312.769531 C1631.96224,312.769531 1616.29655,317.66862 1604.56152,327.466797 C1592.8265,337.264974 1581.3763,351.734375 1570.21094,370.875 C1569.52734,351.734375 1565.76758,337.264974 1558.93164,327.466797 C1552.0957,317.66862 1540.93034,312.769531 1525.43555,312.769531 C1495.12956,312.769531 1479.97656,333.733073 1479.97656,375.660156 L1479.97656,375.660156 L1479.97656,635.425781 C1479.97656,654.110677 1484.30599,668.238281 1492.96484,677.808594 C1501.6237,687.378906 1512.67513,692.164062 1526.11914,692.164062 Z M1942.08594,692.164062 C1968.29036,692.164062 1991.47559,688.746094 2011.6416,681.910156 C2031.80762,675.074219 2048.55566,666.472331 2061.88574,656.104492 C2075.21582,645.736654 2085.1849,634.913086 2091.79297,623.633789 C2098.40104,612.354492 2101.70508,602.499349 2101.70508,594.068359 C2101.70508,584.498047 2098.74284,577.092448 2092.81836,571.851562 C2086.89388,566.610677 2079.14648,563.990234 2069.57617,563.990234 C2060.68945,563.990234 2053.85352,566.041016 2049.06836,570.142578 C2037.44727,581.080078 2027.99089,589.738932 2020.69922,596.119141 C2013.40755,602.499349 2005.43229,608.480794 1996.77344,614.063477 C1988.11458,619.646159 1979.1709,623.747721 1969.94238,626.368164 C1960.71387,628.988607 1950.51693,630.298828 1939.35156,630.298828 C1922.71745,630.298828 1907.50749,626.197266 1893.72168,617.994141 C1879.93587,609.791016 1868.88444,597.60026 1860.56738,581.421875 C1852.25033,565.24349 1847.97786,546.558594 1847.75,525.367188 L1847.75,525.367188 L2030.26953,525.367188 C2054.65104,525.367188 2073.5638,521.892253 2087.00781,514.942383 C2100.45182,507.992513 2107.17383,492.782552 2107.17383,469.3125 C2107.17383,444.019531 2100.67969,419.182292 2087.69141,394.800781 C2074.70312,370.419271 2055.16374,350.538086 2029.07324,335.157227 C2002.98275,319.776367 1971.70833,312.085938 1935.25,312.085938 C1907.22266,312.085938 1881.70182,316.586263 1858.6875,325.586914 C1835.67318,334.587565 1816.30469,347.51888 1800.58203,364.380859 C1784.85938,381.242839 1772.89648,401.46582 1764.69336,425.049805 C1756.49023,448.633789 1752.38867,474.211589 1752.38867,501.783203 C1752.38867,560.344401 1769.02279,606.714844 1802.29102,640.894531 C1835.55924,675.074219 1882.15755,692.164062 1942.08594,692.164062 Z M2016.93945,472.388672 L1847.75,472.388672 C1850.9401,440.943359 1859.99772,417.188477 1874.92285,401.124023 C1889.84798,385.05957 1908.93164,377.027344 1932.17383,377.027344 C1956.55534,377.027344 1976.20866,384.945638 1991.13379,400.782227 C2006.05892,416.618815 2014.66081,440.48763 2016.93945,472.388672 L2016.93945,472.388672 Z M2479.73242,692.164062 C2491.12565,692.164062 2501.32259,688.233398 2510.32324,680.37207 C2519.32389,672.510742 2523.82422,663.794922 2523.82422,654.224609 C2523.82422,648.755859 2520.91895,636.508138 2515.1084,617.481445 C2509.29785,598.454753 2506.39258,580.16862 2506.39258,562.623047 C2506.62044,543.938151 2506.79134,526.96224 2506.90527,511.695312 C2507.01921,496.428385 2507.07617,477.857422 2507.07617,455.982422 C2507.07617,421.347005 2502.23405,393.547526 2492.5498,372.583984 C2482.86556,351.620443 2466.28841,336.296549 2442.81836,326.612305 C2419.34831,316.92806 2387.10547,312.085938 2346.08984,312.085938 C2309.40365,312.085938 2278.75586,317.098958 2254.14648,327.125 C2229.53711,337.151042 2211.42188,349.911458 2199.80078,365.40625 C2188.17969,380.901042 2182.36914,396.851562 2182.36914,413.257812 C2182.36914,423.739583 2186.18587,432.341471 2193.81934,439.063477 C2201.4528,445.785482 2210.51042,449.146484 2220.99219,449.146484 C2232.61328,449.146484 2240.18978,447.038737 2243.72168,442.823242 C2247.25358,438.607747 2253.29199,429.891927 2261.83691,416.675781 C2270.38184,403.459635 2280.63574,393.547526 2292.59863,386.939453 C2304.56152,380.33138 2322.39193,377.027344 2346.08984,377.027344 C2373.66146,377.027344 2391.83366,382.780924 2400.60645,394.288086 C2409.37923,405.795247 2414.33529,423.853516 2415.47461,448.462891 C2395.87826,454.159505 2377.70605,459.001628 2360.95801,462.989258 C2344.20996,466.976888 2324.10091,471.363281 2300.63086,476.148438 C2277.16081,480.933594 2262.46354,484.009766 2256.53906,485.376953 C2228.28385,491.529297 2206.06706,503.60612 2189.88867,521.607422 C2173.71029,539.608724 2165.62109,561.369792 2165.62109,586.890625 C2165.62109,605.803385 2170.52018,623.348958 2180.31836,639.527344 C2190.11654,655.705729 2204.07324,668.523112 2222.18848,677.979492 C2240.30371,687.435872 2261.32422,692.164062 2285.25,692.164062 C2311.45443,692.164062 2335.09538,687.777669 2356.17285,679.004883 C2377.25033,670.232096 2399.06836,657.072917 2421.62695,639.527344 C2432.10872,656.617188 2442.02083,669.662435 2451.36328,678.663086 C2460.70573,687.663737 2470.16211,692.164062 2479.73242,692.164062 Z M2317.37891,630.982422 C2300.0612,630.982422 2286.04753,626.026367 2275.33789,616.114258 C2264.62826,606.202148 2259.27344,594.182292 2259.27344,580.054688 C2259.27344,566.382812 2263.83073,555.730143 2272.94531,548.09668 C2282.0599,540.463216 2291.63021,535.336263 2301.65625,532.71582 C2311.68229,530.095378 2329.74056,525.993815 2355.83105,520.411133 C2381.92155,514.828451 2401.80273,509.530599 2415.47461,504.517578 L2415.47461,504.517578 L2415.47461,517.847656 C2415.47461,550.204427 2411.25911,573.446615 2402.82812,587.574219 C2395.53646,600.334635 2384.08626,610.75944 2368.47754,618.848633 C2352.86882,626.937826 2335.83594,630.982422 2317.37891,630.982422 Z M2901.50977,692.164062 C2914.49805,692.164062 2925.09375,687.720703 2933.29688,678.833984 C2941.5,669.947266 2945.60156,656.617188 2945.60156,638.84375 L2945.60156,638.84375 L2945.60156,227.320312 C2945.60156,209.77474 2941.78483,196.501628 2934.15137,187.500977 C2926.5179,178.500326 2915.63737,174 2901.50977,174 C2887.38216,174 2876.50163,178.899089 2868.86816,188.697266 C2861.2347,198.495443 2857.41797,212.964844 2857.41797,232.105469 L2857.41797,232.105469 L2857.41797,369.849609 C2839.8724,350.708984 2821.87109,336.524414 2803.41406,327.295898 C2784.95703,318.067383 2762.28451,313.453125 2735.39648,313.453125 C2688.91211,313.453125 2651.42839,329.745443 2622.94531,362.330078 C2594.46224,394.914714 2580.2207,440.373698 2580.2207,498.707031 C2580.2207,526.278646 2583.80957,551.913411 2590.9873,575.611328 C2598.16504,599.309245 2608.70378,619.93099 2622.60352,637.476562 C2636.50326,655.022135 2652.96647,668.523112 2671.99316,677.979492 C2691.01986,687.435872 2711.69857,692.164062 2734.0293,692.164062 C2750.89128,692.164062 2766.44303,689.828451 2780.68457,685.157227 C2794.92611,680.486003 2808.14225,673.650065 2820.33301,664.649414 C2832.52376,655.648763 2844.88542,643.970703 2857.41797,629.615234 L2857.41797,629.615234 L2857.41797,638.84375 C2857.41797,655.933594 2861.5765,669.092773 2869.89355,678.321289 C2878.21061,687.549805 2888.74935,692.164062 2901.50977,692.164062 Z M2762.74023,620.044922 C2746.56185,620.044922 2731.63672,615.544596 2717.96484,606.543945 C2704.29297,597.543294 2693.52637,584.15625 2685.66504,566.382812 C2677.80371,548.609375 2673.87305,527.076172 2673.87305,501.783203 C2673.87305,477.857422 2677.57585,456.836914 2684.98145,438.72168 C2692.38704,420.606445 2702.81185,406.706706 2716.25586,397.022461 C2729.69987,387.338216 2744.9668,382.496094 2762.05664,382.496094 C2778.46289,382.496094 2793.55892,387.224284 2807.34473,396.680664 C2821.13053,406.137044 2832.06803,419.808919 2840.15723,437.696289 C2848.24642,455.583659 2852.29102,476.945964 2852.29102,501.783203 C2852.29102,528.215495 2848.24642,550.261393 2840.15723,567.920898 C2832.06803,585.580404 2821.24447,598.682617 2807.68652,607.227539 C2794.12858,615.772461 2779.14648,620.044922 2762.74023,620.044922 Z M3196.67578,692.164062 C3211.25911,692.164062 3223.33594,686.923177 3232.90625,676.441406 C3242.47656,665.959635 3247.26172,650.578776 3247.26172,630.298828 L3247.26172,488.453125 L3340.23047,488.453125 C3402.4375,488.453125 3449.26367,475.293945 3480.70898,448.975586 C3512.1543,422.657227 3527.87695,383.977214 3527.87695,332.935547 C3527.87695,309.009766 3524.00326,287.476562 3516.25586,268.335938 C3508.50846,249.195312 3497.1722,233.016927 3482.24707,219.800781 C3467.32194,206.584635 3449.60547,197.128255 3429.09766,191.431641 C3408.36198,185.507161 3378.73958,182.544922 3340.23047,182.544922 L3210.00586,182.544922 C3187.67513,182.544922 3171.38281,187.330078 3161.12891,196.900391 C3150.875,206.470703 3145.74805,222.421224 3145.74805,244.751953 L3145.74805,630.982422 C3145.74805,651.034505 3150.41927,666.244466 3159.76172,676.612305 C3169.10417,686.980143 3181.40885,692.164062 3196.67578,692.164062 Z M3145.75,411.890625 L3145.75,258.765625 L3315.62109,258.765625 C3360.96615,258.765625 3390.93034,266.171224 3405.51367,280.982422 C3418.50195,294.882161 3424.99609,312.883464 3424.99609,334.986328 C3424.99609,353.443359 3420.7806,368.36849 3412.34961,379.761719 C3403.91862,391.154948 3391.6709,399.358073 3375.60645,404.371094 C3359.54199,409.384115 3339.54688,411.890625 3315.62109,411.890625 L3145.75,411.890625 Z M3742.52539,692.164062 C3771.00846,692.164062 3796.64323,687.663737 3819.42969,678.663086 C3842.21615,669.662435 3861.8125,656.73112 3878.21875,639.869141 C3894.625,623.007161 3907.15755,602.841146 3915.81641,579.371094 C3924.47526,555.901042 3928.80469,530.266276 3928.80469,502.466797 C3928.80469,474.439453 3924.53223,448.804688 3915.9873,425.5625 C3907.44238,402.320312 3894.9668,382.268229 3878.56055,365.40625 C3862.1543,348.544271 3842.44401,335.55599 3819.42969,326.441406 C3796.41536,317.326823 3770.7806,312.769531 3742.52539,312.769531 C3714.72591,312.769531 3689.31901,317.269857 3666.30469,326.270508 C3643.29036,335.271159 3623.69401,348.088542 3607.51562,364.722656 C3591.33724,381.356771 3578.91862,401.408854 3570.25977,424.878906 C3561.60091,448.348958 3557.27148,474.211589 3557.27148,502.466797 C3557.27148,530.494141 3561.54395,556.07194 3570.08887,579.200195 C3578.63379,602.328451 3591.16634,622.380534 3607.68652,639.356445 C3624.20671,656.332357 3643.74609,669.377604 3666.30469,678.492188 C3688.86328,687.606771 3714.27018,692.164062 3742.52539,692.164062 Z M3742.52539,622.779297 C3723.84049,622.779297 3707.60514,617.937174 3693.81934,608.25293 C3680.03353,598.568685 3669.43783,584.611979 3662.03223,566.382812 C3654.62663,548.153646 3650.92383,526.848307 3650.92383,502.466797 C3650.92383,477.857422 3654.68359,456.324219 3662.20312,437.867188 C3669.72266,419.410156 3680.43229,405.453451 3694.33203,395.99707 C3708.23177,386.54069 3724.29622,381.8125 3742.52539,381.8125 C3770.7806,381.8125 3793.28223,392.408203 3810.03027,413.599609 C3826.77832,434.791016 3835.15234,464.413411 3835.15234,502.466797 C3835.15234,540.064453 3826.77832,569.515951 3810.03027,590.821289 C3793.28223,612.126628 3770.7806,622.779297 3742.52539,622.779297 Z M4165.32812,692.164062 C4193.8112,692.164062 4219.44596,687.663737 4242.23242,678.663086 C4265.01888,669.662435 4284.61523,656.73112 4301.02148,639.869141 C4317.42773,623.007161 4329.96029,602.841146 4338.61914,579.371094 C4347.27799,555.901042 4351.60742,530.266276 4351.60742,502.466797 C4351.60742,474.439453 4347.33496,448.804688 4338.79004,425.5625 C4330.24512,402.320312 4317.76953,382.268229 4301.36328,365.40625 C4284.95703,348.544271 4265.24674,335.55599 4242.23242,326.441406 C4219.2181,317.326823 4193.58333,312.769531 4165.32812,312.769531 C4137.52865,312.769531 4112.12174,317.269857 4089.10742,326.270508 C4066.0931,335.271159 4046.49674,348.088542 4030.31836,364.722656 C4014.13997,381.356771 4001.72135,401.408854 3993.0625,424.878906 C3984.40365,448.348958 3980.07422,474.211589 3980.07422,502.466797 C3980.07422,530.494141 3984.34668,556.07194 3992.8916,579.200195 C4001.43652,602.328451 4013.96908,622.380534 4030.48926,639.356445 C4047.00944,656.332357 4066.54883,669.377604 4089.10742,678.492188 C4111.66602,687.606771 4137.07292,692.164062 4165.32812,692.164062 Z M4165.32812,622.779297 C4146.64323,622.779297 4130.40788,617.937174 4116.62207,608.25293 C4102.83626,598.568685 4092.24056,584.611979 4084.83496,566.382812 C4077.42936,548.153646 4073.72656,526.848307 4073.72656,502.466797 C4073.72656,477.857422 4077.48633,456.324219 4085.00586,437.867188 C4092.52539,419.410156 4103.23503,405.453451 4117.13477,395.99707 C4131.03451,386.54069 4147.09896,381.8125 4165.32812,381.8125 C4193.58333,381.8125 4216.08496,392.408203 4232.83301,413.599609 C4249.58105,434.791016 4257.95508,464.413411 4257.95508,502.466797 C4257.95508,540.064453 4249.58105,569.515951 4232.83301,590.821289 C4216.08496,612.126628 4193.58333,622.779297 4165.32812,622.779297 Z M4471.23633,692.164062 C4485.13607,692.164062 4496.47233,687.435872 4505.24512,677.979492 C4514.0179,668.523112 4518.4043,654.338542 4518.4043,635.425781 L4518.4043,635.425781 L4518.4043,230.738281 C4518.4043,211.825521 4514.07487,197.640951 4505.41602,188.18457 C4496.75716,178.72819 4485.36393,174 4471.23633,174 C4457.10872,174 4445.88639,178.785156 4437.56934,188.355469 C4429.25228,197.925781 4425.09375,212.053385 4425.09375,230.738281 L4425.09375,230.738281 L4425.09375,635.425781 C4425.09375,653.654948 4429.36621,667.66862 4437.91113,677.466797 C4446.45605,687.264974 4457.56445,692.164062 4471.23633,692.164062 Z" fill="#000000" fill-rule="nonzero"/>
    </g>
    <text font-family="ArialRoundedMTBold, Arial Rounded MT Bold" font-size="150" font-weight="normal" fill="#000000">
      <tspan x="1284" y="835">A High Performance Cardano Stake Pool</tspan>
    </text>
</svg>
